<svg xmlns="http://www.w3.org/2000/svg" width="24" height="24" viewBox="0 0 24 24">
    <path fill="#475993" fill-rule="nonzero" d="M20.085 0H3.128A3.128 3.128 0 0 0 0 3.128v16.958c0 1.727 1.4 3.128 3.128 3.128h8.363l.015-8.296H9.35a.508.508 0 0 1-.509-.506l-.01-2.674a.509.509 0 0 1 .508-.51h2.151V8.643c0-2.999 1.832-4.631 4.506-4.631h2.195c.281 0 .509.227.509.508v2.255c0 .28-.228.508-.509.508l-1.346.001c-1.455 0-1.737.691-1.737 1.706v2.236h3.197c.304 0 .54.266.504.569l-.316 2.674a.509.509 0 0 1-.505.448h-2.865l-.015 8.296h4.977c1.727 0 3.128-1.4 3.128-3.128V3.128C23.214 1.4 21.814 0 20.085 0z"/>
</svg>
