<svg xmlns="http://www.w3.org/2000/svg" width="24" height="24" viewBox="0 0 24 24">
    <g fill="none" fill-rule="nonzero" transform="translate(.516)">
        <rect width="23.212" height="23.212" fill="#50ABF1" rx="4"/>
        <path fill="#FFF" d="M3.075 17.207a9.94 9.94 0 0 0 5.342 1.546c5.519 0 9.992-4.474 9.992-9.992 0-.138-.003-.274-.008-.41.2-.158 1.434-1.147 1.737-1.783 0 0-1.003.416-1.984.514h-.006s.002 0 .005-.003c.09-.06 1.354-.92 1.525-1.946 0 0-.709.379-1.701.71-.165.055-.337.108-.514.158a3.505 3.505 0 0 0-5.975 3.19c-.27-.012-4.393-.243-7.197-3.639 0 0-1.675 2.288 1 4.64 0 0-.814-.032-1.515-.45 0 0-.258 2.77 2.77 3.48 0 0-.595.225-1.546.064 0 0 .532 2.24 3.223 2.45 0 0-2.128 1.921-5.149 1.47h.001z"/>
    </g>
</svg>
